<?xml version="1.0" encoding="UTF-8"?>
<svg width="512" height="512" viewBox="0 0 512 512" xmlns="http://www.w3.org/2000/svg">
  <!-- ShelfQuest Logo - Monochrome Version -->
  <!-- Use on colored backgrounds or single-color printing -->
  
  <!-- Main bookmark ribbon -->
  <path d="M 196 80 L 196 420 L 256 370 L 316 420 L 316 80 Z" 
        fill="#5e0085"/>
  
  <!-- Compass rose circle -->
  <circle cx="256" cy="140" r="45" fill="none" stroke="#5e0085" stroke-width="3"/>
  
  <!-- Compass points - simplified for monochrome -->
  <path d="M 256 95 L 264 120 L 256 130 L 248 120 Z" fill="#5e0085"/>
  <path d="M 256 185 L 264 160 L 256 150 L 248 160 Z" fill="#5e0085"/>
  <path d="M 301 140 L 276 148 L 266 140 L 276 132 Z" fill="#5e0085"/>
  <path d="M 211 140 L 236 148 L 246 140 L 236 132 Z" fill="#5e0085"/>
  
  <!-- Center compass pin -->
  <circle cx="256" cy="140" r="12" fill="#5e0085"/>
  <circle cx="256" cy="140" r="6" fill="#ffffff"/>
  
  <!-- Achievement star -->
  <path d="M 256 285 L 262 300 L 278 302 L 266 313 L 269 329 L 256 321 L 243 329 L 246 313 L 234 302 L 250 300 Z" 
        fill="#5e0085"/>
</svg>